<?xml version="1.0" encoding="UTF-8"?>
<svg width="552px" height="106px" viewBox="0 0 552 106" version="1.1" xmlns="http://www.w3.org/2000/svg" xmlns:xlink="http://www.w3.org/1999/xlink">
    <title>GEMLUX_Main_Logo_White</title>
    <g id="Page-1" stroke="none" stroke-width="1" fill="none" fill-rule="evenodd">
        <g id="GEMLUX_Main_Logo_White" fill="#FFFFFF" fill-rule="nonzero">
            <g id="Group">
                <g transform="translate(0.000000, 8.000000)" id="Path">
                    <path d="M8.8,48.2 C4.6,31.2 24.9,11.5 54.8,2.8 C53.4,3.1 52,3.4 50.7,3.7 C18.7,11.7 -3.7,32.5 0.7,50.2 C5,68 34.5,75.9 66.6,68 C68,67.7 69.3,67.3 70.7,66.9 C40.2,73.2 13,65.2 8.8,48.2 Z"></path>
                    <path d="M132,23.2 C127.7,6.2 100.5,-1.6 70.1,4.8 C71.5,4.4 72.8,4 74.2,3.7 C106.2,-4.4 135.8,3.5 140.2,21.2 C144.7,38.9 122.3,59.8 90.3,67.9 C88.9,68.2 87.5,68.6 86.2,68.8 C116,60 136.3,40.1 132,23.2 Z"></path>
                </g>
                <path d="M58.7,0 C58.7,0 75.3,30.8 75.9,32 C77.3,31.9 122.3,29.9 122.3,29.9 L81,51 L87,105.9 L64.6,55.4 L18.5,57.6 C18.5,57.6 58.3,37 59.6,36.4 C59.4,35 58.7,0 58.7,0 Z M24.3,56.1 L66.8,51.1 L84.3,95.4 L77,48.4 L116.5,31.5 L73.8,36.3 L60.3,5.8 L63.5,39 L24.3,56.1 Z" id="Shape"></path>
            </g>
            <path d="M153.7,42.8 C153.7,32.3 161.6,29.8 174.8,29.8 L196.9,29.8 C213.5,29.8 215.9,34.3 215.9,41.3 L215.9,42.4 L201.5,42.4 C201.5,38.8 198.8,38.4 194.1,38.4 L178.2,38.4 C170.8,38.4 168.9,39.7 168.9,45.9 L168.9,50.4 C168.9,56.5 170.8,57.9 178.2,57.9 L193.9,57.9 C197.7,57.9 201.6,57.5 201.6,54 L201.6,53 L183.4,53 L183.4,45.6 L216,45.6 L216,55.8 C216,66.1 208.9,66.6 192.4,66.6 L174.8,66.6 C161.6,66.6 153.7,64.1 153.7,53.6 L153.7,42.8 L153.7,42.8 Z" id="Path"></path>
            <polygon id="Path" points="220.7 30.2 273 30.2 273 38.5 235.3 38.5 235.3 44.2 271 44.2 271 51.6 235.3 51.6 235.3 57.3 273.8 57.3 273.8 65.9 220.6 65.9 220.6 30.2"></polygon>
            <polygon id="Path" points="278.5 30.2 301 30.2 317.6 53.3 334.2 30.2 356.7 30.2 356.7 66.1 342.4 66.1 342.4 40.3 342.3 40.3 323.1 66.1 312.1 66.1 292.9 40.3 292.8 40.3 292.8 66.1 278.5 66.1"></polygon>
            <polygon id="Path" points="364.8 30.2 371.3 30.2 371.3 62.1 408.4 62.1 408.4 66.1 364.8 66.1"></polygon>
            <path d="M411.9,30.2 L418.4,30.2 L418.4,57 C418.4,60.5 420,62.5 428.8,62.5 L451.3,62.5 C460.1,62.5 461.7,60.5 461.7,57 L461.7,30.2 L468.2,30.2 L468.2,57.1 C468.2,64.4 463.3,66.5 451.2,66.5 L429,66.5 C416.8,66.5 412,64.4 412,57.1 L412,30.2 L411.9,30.2 Z" id="Path"></path>
            <polygon id="Path" points="497.4 47.1 474 30.2 483.2 30.2 503.1 44.6 523.2 30.2 532.1 30.2 508.7 47.1 535.1 66.1 526 66.1 503.1 49.5 480.5 66.1 471.1 66.1"></polygon>
            <path d="M545,27.9 C548.3,27.9 551.1,30.6 551.1,34 C551.1,37.3 548.4,40.1 545,40.1 C541.6,40.1 539,37.3 539,34 C539,30.6 541.7,27.9 545,27.9 Z M545,38.9 C547.7,38.9 549.9,36.7 549.9,34 C549.9,31.3 547.7,29.1 545,29.1 C542.3,29.1 540.1,31.3 540.1,34 C540.1,36.7 542.3,38.9 545,38.9 Z M542.7,30.5 L545.2,30.5 C546.9,30.5 547.8,31.1 547.8,32.5 C547.8,33.7 547,34.2 546,34.4 L547.9,37.4 L546.6,37.4 L544.9,34.5 L543.9,34.5 L543.9,37.4 L542.8,37.4 L542.8,30.5 L542.7,30.5 Z M545.2,33.5 C546,33.5 546.7,33.4 546.7,32.5 C546.7,31.7 545.9,31.5 545.3,31.5 L543.9,31.5 L543.9,33.5 L545.2,33.5 Z" id="Shape"></path>
        </g>
    </g>
</svg>